<svg width="34" height="34" viewBox="0 0 34 34" fill="none" xmlns="http://www.w3.org/2000/svg">
<path fill-rule="evenodd" clip-rule="evenodd" d="M27.5556 1.88208C27.091 1.61018 26.4969 1.77154 26.2286 2.24248L23.2576 7.45999C21.2336 6.51255 19.1383 6.02813 17.0173 6.02813C11.3185 6.02813 5.80557 9.52754 1.35998 16.1061L1.34235 16.132L1.32693 16.1543C1.17885 16.3663 1.17507 16.6156 1.32619 16.8252C4.60663 21.6979 8.4722 24.8892 12.566 26.2305L10.1993 30.3838C9.93098 30.8548 10.0902 31.457 10.5548 31.7289L10.9755 31.975C11.4401 32.2469 12.0342 32.0856 12.3025 31.6146L28.3318 3.47328C28.6001 3.00234 28.4409 2.40017 27.9762 2.12825L27.5556 1.88208ZM21.9689 9.72257C20.3215 8.99726 18.6581 8.64373 17.0173 8.64373C12.8766 8.64373 8.59012 10.8956 4.78324 15.693C4.41779 16.1536 4.41779 16.825 4.78324 17.2856C7.63686 20.8818 10.7599 23.0482 13.8891 23.9078L15.5253 21.035C13.6562 20.4388 12.1105 18.7759 12.1105 16.4919C12.1105 13.6029 14.3249 11.2606 17.0559 11.2606C18.3166 11.2606 19.4671 11.7597 20.3407 12.5812L21.9689 9.72257ZM18.9903 14.9521C18.5697 14.3 17.8781 13.8762 17.0559 13.8762C15.6892 13.8762 14.5715 15.0454 14.5715 16.49C14.5715 17.4446 15.5954 18.5602 16.8816 18.6541L18.9903 14.9521Z" fill="black"/>
<path d="M17.8345 26.928C23.2305 26.6107 28.421 23.1547 32.6477 16.9161C32.7362 16.7854 32.7856 16.6503 32.7856 16.4895C32.7856 16.3363 32.7431 16.2083 32.6588 16.0837C31.0345 13.6821 29.2672 11.6921 27.4005 10.1338L26.1143 12.3919C27.1862 13.3149 28.2358 14.4135 29.2513 15.6932C29.6168 16.1538 29.6168 16.8251 29.2513 17.2857C26.1891 21.1448 22.8167 23.3575 19.4593 24.0755L17.8345 26.928Z" fill="black"/>
</svg>
